<svg width="24" height="24" viewBox="0 0 24 24" fill="none" xmlns="http://www.w3.org/2000/svg">
<path d="M14.3805 1H6.25789C4.86341 1 3.52605 1.55395 2.54 2.54C1.55395 3.52605 1 4.86341 1 6.25789V17.7421C1 19.1366 1.55395 20.474 2.54 21.46C3.52605 22.446 4.86341 23 6.25789 23H17.3614C18.7272 23 20.0466 22.5043 21.0744 21.6049C22.2981 20.5342 23 18.9873 23 17.3614V9.6195C23 7.76298 22.2625 5.9825 20.9497 4.66975L19.3303 3.05025C18.0175 1.7375 16.237 1 14.3805 1Z" stroke="white" stroke-width="2"/>
<path d="M5 1V2.30389C5 3.15662 5.3517 3.9716 5.97214 4.55659V4.55659C6.54667 5.09829 7.30647 5.4 8.09611 5.4H10.3039C11.0935 5.4 11.8533 5.09829 12.4279 4.55659V4.55659C13.0483 3.9716 13.4 3.15662 13.4 2.30389V1M5 23V16.4161C5 15.5634 5.3517 14.7484 5.97214 14.1634V14.1634C6.54667 13.6217 7.30647 13.32 8.09611 13.32H15.9039C16.6935 13.32 17.4533 13.6217 18.0279 14.1634V14.1634C18.6483 14.7484 19 15.5634 19 16.4161V23" stroke="white" stroke-width="2"/>
</svg>
